<svg width="869" height="433" fill="none" xmlns="http://www.w3.org/2000/svg"><path d="m36.501 2.719 1.368 1.225 1.75-.28.898.376 2.845 2.514 2.626-.483 1.072.333 1.4.806.898.171 1.345-.01.81.096 2.09.344 1.214-.043.92-.58.93-.752.623-.355 2.495 1.569 2.604.333 1.247.763 1.094 1.525 1.324.559 1.39.483 2.286.409 3.162 1.117 1.029.086 1.97-1.064 3.205-3.792 1.04-.677 1.148-.225.843-.301.886-.516 1.291-.978 1.368.022.777.183 1.105.977.7 1.107.667 1.343.733.612 1.171.462 1.072.247 2.222.097 1.52.698 1.937 1.042 1.291.902 1.171 1.15 1.565.838 2.636 1.15 1.554.837 1.696 1.225 4.552-.075 1.553.14 1.674 1.01.668.655.164.88-.46 1.634.077.515.558.677 1.16.408 1.181.731.963.902 1.324 2.955 1.718.59 2.024-.16 1.16-.387.733-.946.536-.408.799-.129.952.365 1.389 1.128 1.455.924 1.477.699.832 1.096.678 1.16.132 2.127.295.268 2.046 1.193 3.709.87 1.455-.064.646-.559.405-.978.591-.805.733-.666.809-.065 1.707.129 1.63.526 1.598.806 1.915.559 2.877 1.085 2.32.73 2.122 1.075 2.221 1.6 4.027.763 1.017.451 1.204 1.075 1.368 1.869 1.586-.086.974.065-.033.236.285-.548 1.138-.655 1.039-.978 1.422-2.256.908-.58.569.15.744.387h.482l1.346-.59 1.116-.14.809.225 1.609 1.45.339 7.564.339.655.646.344.93.204 3.052.483.865-.053 1.378.569.657.709.448.709.908.935 1.226.902 2.823 1.375 2.538 1.622.7.85.46 1.235 2.451.913 1.192 1.418 2.145.365 3.074 1.526.996.268 1.302-.172 1.193-.977.973-.097.559.204 3.38 1.773.504.354 1.006.237.985.042 1.072-.558.876-.978.656-1.3.471-.268.623.032 1.554 1 1.926 1.965 2.428.688 1.554.14 2.714 1.235.689-.011 1.368-.3 2.79-.914 1.422-.849.602-1.235-.755-1.633-.153-.838.262-.86.427-.633.733-.215.81.15 1.597 1.612 3.414 1.471 2.593.237.722.29.503.57.996 1.643.646.483 1.006-.085 1.663-.817 2.692-.15 2.177.225 1.609 1.418 1.105 1.633 1.236.376 1.215.108 3.019-1.794 2.954-.162 1.16-.376 3.086-2.288 1.116-.075 1.247.397-.372.828-.317 1.246-1.072 2.148-.285 1.086-1.105 2.31-.142.665-.011 4.33 1.214 2.428.11 1.031-.515 1.246-.306 1.805-1.094 2.224-.219.956-2.09 4.222-.273.42-1.816 1.836-1.029.849-1.236.698-.569.516-.361.516-.591 1.214-.186.655-.153 1.29-.504 1.02-.262.3-.449.194-1.313.182-1.039.366-.93.107-2.429.054-1.674.537-2.145.183-3.599 1.697-1.926.333-1.149.419-1.969.151-.613.15-2.681 1.225-.383.343-.229.462.054.591.438 1.139.186 1.407.656 1.107.241.183.46.107 2.035.043.503.29.175.806-.109.677-.438.977-.153.698v4.061l.306.731.449.44.645.312.438.516.164.494.088 1.934.186.612.951.967.176.548-.077.73-.744 1.579-.722.967-1.127.419-1.795.87-.765.795-.449.806-.722.903-.175.483.186.516 1.575 1.547v.698l.613 1.719.131 3.094.099.516.394.795.087.515.044 7.435.109 1.246.427.956.285 1.096.437.73 2.582 2.6.569 1.01.723.924.328.666.109.784-.022 2.729-.087.601-.427 1.032-.284 1.74-.405.978-.285 1.085-.656.72-1.226.623-2.188.73-1.214 1.461-.974 1.966-1.707 1.945-.624 1.096-2.658 2.685-.93 1.472-1.904 1.848-.985.516-1.116.827-1.083.58-1.915 1.579-1.105.58-1.138.86-8.217 3.932-2.035.311-.952.376-.985.215-1.553.677-.482.344-.547.591-.875 1.396-2.462 2.471-.361.473-.361.72-.821.924-3.173 1.579-3.359 1.536-2.691 1.429-.317-1.182-.143-1.429-.328-1.568-.284-1.805-.329-2.235-.492-4.329-.077-1.386-.251-1.568-.175-2.289-.143-1.138-1.083-6.758-.208-1.053-.328-1.235-.219-.527-.284-1.568-.175-.816-.142-.914-.471-1.042-.328-1.096-.744-2.621-.296-2.148-3.151-9.261-.864-2.482-1.007-1.998-.284-.623-.219-.666-.427-.817-1.006-1.675-1.04-1.139-.503-.054-1.324.29-.109.043-.318-.763-.437-.333-.427-.72-.821-.999-1.542-.913-1.981-.623-.963.054h-.58l-.787-.237-.569-.15-.646-.14-.437-.29-1.04-.429-.536-.14-.569-.15-.58-.043-.361.139h-.35l-.864-.139-.569-.237-.799-.58-.646-.569-1.148-.86-.996-.236-.722-.29-.897-.29-.646-.14-1.86-.483-.755-.237-.755-.193-.678-.43-1.368-.376-1.904-.096-1.247.376-.328.15-.613.473-.678.58-.646.333h-.613l-.503-.129-.569-.118-.864-.28-1.04-.15-.394-.086-.569-.58-.109-.236-.394-1.01-.076-.763-.208-.29-.329-.183-.47-.623-.394-.483-.82-.57-.176-.29-.076-.569-.865-1.053-.754-.537-.318-.569-.47-1.44-.066-1.15-.219-1.332-.317-1.149-.252-1.676-.251-2.063-.788-4.361-.405-1.966-.459-2.16-.471-1.192-.569-1.247-.252-.956-.251-.537-.471-.956-.251-.43-.394-.58-.394-.623-.252-.859-.394-.623-.93-.871-.612-.569-1.259-.483-.995.053-.219.376-.821.29-1.619-.236-1.039.043-.723.773-.251.237-.504.526-.317.344-.536.526-.722.194-.613-.247-.241-.194-.218-.236-.394-1.246-.646-.677-.974-1.053-.317-.387-1.006-.472-.143-.194-.361-.967-.317-.816-.186-.376-1.182-1.493-.536-.484-1.225-.709-.427-.816-.569-.247-.295-.763-.285-.484-.427-.676-.689-1.15-.788-.956-.394-.44-1.542-1.29-.755-.247-1.827-.096-1.259-.624-1.717-.386-1.576-.043-.361-.194h-.471l-.492.14-.613.344h-.361l-.426-.15-.252-.237-.974-.236-3.228-.44-2.44.053-.71.236-.975.097h-.426l-1.51-.194-.613-.14h-.503l-.394.194-.788-.053-.853-.14-1.904-.817-1.335-1.063-1.247-.28-.47-.193h-.394l-1.368.666-2.615.72-1.576.344-1.433.097-.832-.054-.393-.14-.537-.344-1.51-1.772-.645-1.246-.536-.677-.963-1.246-.252-.58-.47-.72-.361-.29-.82-.527-.427-.44-.405-.43-.57-.387-.82-.333-.58-.054h-.645l-.504.054-.284.237h-.57l-.973-.044-.427-.193h-.36l-.362.097-.36.29-.285.193-.285.14-.536-.58-.219-.527-.47-.386-.864-.484-.35-.193-.329-.14h-.492l-.296.14-.93-.376-.394-.29-.569-.623-.47-.248-.284-.042-.504-.194-.69-.58-.24-.387-.437-.29-1.4-.72-1.15-.096-1.575.386-1.182.677-.47.387-.46.43-.646.87-.36.43-.646.58.066.43.043.29-.186.333-.142.15-.427-.097-.722-.58-.503-.773-.602-.387-.69-.623-.492-.43-.973-1.396-.427-.334h-.864l-.394-.193-.832-.87-.427-.484-.284-.236-.832-.773-.175-.387-.47-2.406-.427-6.382-.503-4.265-.722-3.373-.57-2.117-.535-1.59-.536-1.117-.504-.72-.36-.333-.822-.483-1.115-.44-.537-.097-.284-.043-.328-.247-.318-.387-.689-.333-.569-.29-2.122-.333-.712-.29-1.652-.387-1.258-.58-1.182-.774-2.582-2.073-.788-.387-1.29.043-.143-.14-.033-.193-1.685-1.117-.864-.527-.186-.096-1.718-1.107-.897-.247H7.944l-1.619-.097-2.112-.483-1.192-.333-.711-.247-.7.053-.11-2.406.624-2.782-.164-1.354.284-.945.624-.828 2.22-4.147.362-1.256.569-3.127.777-.88 1.466-1.913.131-1.01.416-.913.853-.72 2.736-2.793.437-1.02-.044-.763-.678-1.805.033-1.29.438-1.117.634-.762.624-.14 2.32.516 1.29-.205 1.609-.612 1.882-.86 1.86-.418.853.01 1.27.473 2.527-.043.94-.354.942-.742 1.236-.44L32.158 1l1.882.29L36.5 2.72ZM228.986 290.466l.337-.227.958.075.686.098.991.411.534.108 6.706.055.719.14 1.001.422.545.098 5.596.032 1.132.163 2.831 1.342.62.888.076.79-.076 3.28.098.476.305.379.49.13.871.032 3.495-.065 1.001.217.545.368.381.411.784 1.288.479.585.544.346 1.307.379.642.303 2.134.346.893.477.315.27.185.585.098 1.331.381.509.447.076.566-.173 3.44-1.711 1.078-.238 1.307-.487.544-.065 4.464.033.903.032.523.152 2.743 1.288.643.649.697 1.299.588 1.646 1.513-.444.98-.422 2.46-.26.828-.347.925-.216 6.576.108 3.092-2.944 2.504-1.267 1.894-1.58.479-.162.512-.054 2.842.01.86.098.457.216 1.884 1.786.511.671 1.59 3.259.522.53.458.173.511.054 4.453.033.305 1.256 1.775 3.474.13.487.033.704.022 3.702-.12.877-.425.693-1.85 1.818-.36.736-.054 1.624.152.628.447.92.196.898 1.502 2.999 1.644 1.872.512.92.457.379 2.09.985.926.812 1.35 2.587 2.417 2.392.413.509.262.606.207 1.57.381.779.522 1.418.893 2.912-.664.379-.545.704-.239.747.087 1.937-.152 1.018-1.59 3.236.392.541.163 1.906-.86.357-.816.736-.969 1.873-1.677-.141-.544.465-.153.899-.511.498-.937.324-.392.39-.773 1.786 1.383 2.327.316 1.354-.033.627-.348.542-.86.043-1.176-.963-1.013.043-3.244.985-3.125-.173-.98-.423-1.252-1.234-1.927-1.19-.903-1.591-2.853.054-1.829.292-1.143-.66-1.296-.769-1.48.13-.86.195-1.133-.455-.947-1.158-.947-.574-.936-.303-1.851-1.429-.904-.184-2.264.368-1.84-.692-5.193.238-.708.357-.719-2.089-.392-.39-.664-.227-.794-.845-1.601-.065-2.493.953-.827.011-1.089.162-.98.325-1.165.087-.25-1.202-.86-.152-1.242.758-1.927-.411-1.045.4-3.266 2.36-.697.163-.871-.26-2.95-1.602-1.056-.141-1.72.022-.545-.076-.403-.693-.043-.931-1.546-1.548-2.809.119-1.002 1.364-3.146 2.176-.621.249-1.361.325-.533 1.483-.893.79-.065 1.32-1.339 1.559-.882 1.537-3.43 1.094-.261.898-1.099 1.559-1.753.963-.588-.021-1.035-1.354-.522-1.039-1.415-.638-1.252-.336-.327-1.201-.828-.455-1.731-.758-1.774-.866-3.277.119-1.655-.357-.272-.541.294-.823.62-.476.109-.66-.359-.769-1.263-.574-4.235 1.851-1.557.379-1.132.173-1.144-.487-3.233-2.132-1.666-1.526-3.233-1.191-.523-.855-.98-.368-1.72-.13-1.219-.563.109-1.267.141-.238.251-.281.065-.617.218-.195.283-.043.25-.184.436-.379.25-1.093.174-1.462.109-1.981-.033-1.656.349-1.992.642-1.883.686-.953.457-.422.218-.379.316-.66.609-.801.534-.433.718-.942.251-.476 1.11-1.375 1.241-1.18 1.176-1.039.545-.335.207-.087h.468l.424.184v.476l.142.422.294.715.74-.141.468.141-.065-.336.065-.324.327-.293.207.379.577.054.566-.379.185-.14.392-.52.316-.335.577-.953.707-.747.784-1.136.751-1.332.534-.942.294-.519.174-.617.25-.195.425-.043.283-.617.501-.715.468-1.277.468-1.083 1.318-3.647.892-3.226.501-.282.251-.292.348-.855.577-.801.817-2.176.152-.714.882-2.425.25-1.039.61-4.178.141-2.328.186-2.652-.109-.996-.686-2.944-.033-.909-.141-.704-.033-1.407Z" fill="#fff" fill-opacity=".3" stroke="#EE2C3C" stroke-opacity=".2" stroke-width=".39"/><path d="m226.835 251.493.645-.398.46-.13 1.477-.215.984-.377.69-.097 8.763.075.667-.075 1.543-.453 2.418-.269.995-.377 1.937-.334 2.024-.916.722-.215 6.203.01.733-.129.831-.355 2.648-.442 1.586.851 1.838.269 1.007.41 1.783.28.974.409 1.17.302.898.7 3.15 3.125 1.007.646 1.783.248.832.377.514.097 5.754.065 1.215.14.984.452 1.062.237 1.192.647.328.452.383 1.024-1.072.571-.809.582-.996 1.045-.186.301-.12.475-.066 1.594.175.506 1.379 2.694.634.625 1.225.603.493.14 3.512.065.886.14 1.52.765 1.215.905.667.216.536.053h.7l.766-.237.635-.926.415-.959.515-.841.186-.204.459-.183 1.072-.054 3.228.086.536.118.974.41 1.137.205.733.247 1.904 3.771.262 1.713.427.959.306 1.229.723 1.497.689 1.045.755.216h2.144l.853.097 3.075 1.443 1.673.906 2.834 2.639.47.226.952.205.996.41 1.378.387.679.518 1.498 1.443.733.431 1.029.119 6.225-.043.919.064.678.227.525.506 1.237 1.832.218.7.044 9.136.197 1.056.394.981.153 2.284-3.49-.032-.667.14-.624.377-.886.829-.536.69-.646 1.357-.197 1.552-.142.474-.59.937-.383.237-1.346.205-1.16.442h-.798l-.777-.334-1.587-1.379-.503-.194-.547-.065h-2.429l-.711.151-.809.366-.339.054-2.528.108-4.474-.032-.514-.054-.46-.173-.525-.528-1.597-3.243-.515-.668-1.892-1.777-.46-.216-.864-.097-2.855-.011-.515.054-.481.162-1.904 1.573-2.516 1.26-3.107 2.931-6.608-.108-.93.216-.831.345-2.473.258-.984.42-1.521.442-.591-1.638-.7-1.293-.646-.646-2.757-1.282-.525-.151-.908-.032-4.485-.033-.547.065-1.313.485-1.083.237-3.457 1.702-.569.173-.449-.076-.383-.506-.098-1.325-.186-.582-.318-.27-.897-.474-2.144-.344-.645-.302-1.313-.377-.547-.345-.482-.582-.787-1.282-.383-.409-.547-.367-1.007-.215-3.512.065-.875-.033-.492-.129-.307-.377-.098-.474.077-3.265-.077-.786-.624-.884-2.844-1.336-1.138-.161-5.623-.033-.547-.097-1.007-.42-.722-.14-6.739-.054-.536-.108-.996-.409-.689-.097-.963-.075-.339.226-.076-.916-.208-1.045-.186-.42-.252-3.696-.208-3.361-.503-4.116-.044-2.467.077-.895-.328-.711-.394-1.702.043-.614.208-.237.219-1.325-.142-.054-.285.668-.109.754-.252.097-.678-1.045-.219-.754-.612-.194-.252-.614-.459-.668-.219-.474-.897-2.037-.285-1.185-1.181-2.036-.296-.517-.065-.474-.394-.615-.186-.484-.427-.518v-.28l.175-.334h.296l.251.043-.076-.474.032-.14.186-.14h.175v.474l.361.895.11.334v.571l.251.334.176.474v.237l-.143.183-.109.528.47.28.252.054.098-.237.405.086.317.808h.143l.251-.42.143-.151v-.323l-.208-.388-.077-.183v-.237l.142-.291.252.054.142-.14-.109-.237-.285-.054-.032-.14.142-.184.426-.247.143-.14v-.14l-.143-.238-.503.044-.208-.087-.142-.474-.142-.474-.722-.151-.142-.323-.438-.097-.099-.377-.295.086-.142-.323.219-.388h.394l.47.194.35.14.405-.183.208-.097.251-.097.974-.334.711-.334h.613l.361-.043.251-.14.252-.334.175-.474-.142-.668v-.808l.142-.28.328-.097.252-.097.427-.14.317-.14v-.194l-.35-.28-.296-.097-.426-.097-.175-.043-.252-.194-.153-.367Z" fill="#fff" fill-opacity=".3" stroke="#EE2C3C" stroke-opacity=".2" stroke-width=".39"/><path d="m337.408 185.242 1.406 1.619.308.799-.011 1.566-.132.491-.483 1.108-.088 1.896.187 1.001.988 1.311.209.639.033 3.122-.132 1.512 1.395.171 1.306-.096.978-.405 1.252-.309.824-.351 1.263-.288 1.252-.565.691-.564 1.176-2.238.34-.298.461-.181 1.329.032 1.285.522 1.648.224.571.319 1.394 1.236.253.171.681.181h1.087l1.351-.48 1.175-.17.286-.117.241-.267.341-1.694.461-1.31.22-.384.538-.17.461.032 2.449.959.209.191.604 1.045.725.724.296.181 1.659.298.186.107.066.17 1.56.469 1.394.97 1.132.628 5.831 5.561.604.8.319 1.203.417.949.187 2.929.417.938.231.82.165.235.395.191.461.054 3.097-.011.791.181 2.779 1.364 1.647 1.406 1.263.714 1.208 1.097.505.299h.308l.263-.118 1.307-1.161.582-.309 2.175-.16 1.131-.447.648-.117 1.197.021.999.266 1.329-.799 1.966-.277 1.527-.714 1.241-.916.988-.5 1.724-1.545.703-.863.945-1.886.384-.437 4.646-2.269 1.12-1.023.099-.469.143-.223.626-.267 1.998-.01 2.142.138 1.537-.17 1.143-.437.702-.117 6.623.01.889.15.824.372 1.098.267 1.143.458 2.141.202 1.34.501 1.428.117.889-.096.989-.415 1.252-.309.834-.352 1.78-.266 1.164-.458 1.263-.064.681.17 6.227 3.037 1.779.277 1.307.49 1.757.16 1.955 1.875.845.575 1.791.277.977.405.505.106 3.218.139 1.131.458.648.107.791-.139 2.625-1.268 2.043-1.662 1.702-.777 1.065-.107 1.636.053.648.171.901.49.318.277.681 1.097.659 1.343.099.628-.11.618-.384.778-.319 1.204-.395.788-.307 1.204-1.044 1.971-.153.437-.044.799.087.639.451.937.373 1.108-1.384.256-1.153.437-1.779.256-1.395.649-1.208.874-.472.213-.901.107-2.987-.032-.846.202-.571.405-.757.746-.44.532-.538.991-1.098 1.129-.714.501-1.966.884-.56.491-.758 1.438-.263 1.065-.44.927-.087.458.087.778.396.778.329 1.193.44.948.098.82-.022 3.58-.142.639-.462 1.087-.142 1.8-2.647 1.247-.648.607-.67 1.321-.297 1.215-.384.777-.253 1.726-.428.938-.362 1.332-.703 1.331-1.56 1.694-.801 1.3-.956.778-4.755 2.194-.758.533-.121 1.108-.417.938-.143.841.022 9.109-.11 1.023-.439.607-1.241.703-2.175 1.886-1.021.533-.571.415-1.329 1.236-.67.81-.692 1.321-.143 1.012.077 1.204.517 1.257.12 1.119-1.175.095-1.131.437-1.483.16-.461.128-1.537.756-1.911 1.737-.703.458-1.801.256-1.132.426-1.482.16-.461.127-1.538.746-1.768 1.492-2.79 1.31-.461.128-1.636.202-.824.363-1.263.287-.824.363-1.263.287-.823.362-1.11.235-.977.415-1.252.277-7.754 3.655-1.735.724-1.636-.735-1.417-.778-.758.16-1.636.138-1.702.533-4.371.053-1.868.565-3.525.053-.692.118-1.175.415-1.955.139-.505.159-.439.288-1.45 1.396-1.559.064-1.11-.107-.296-.096-3.306-1.619-.483-.139-.912-.085-3.426.032-.923-.064-.681-.17-2.218-1.044-.736-.107h-2.438l-.769.16-4.118 1.907-.714.522-1.713 1.587-.462.267-1.449.17-1.329-.021-1.109-.149-2.526-1.13-.824-.096-1.417.022-.703-.501-.779-1.289-2.23-2.216-.154-2.259-.395-.969-.198-1.044-.044-9.035-.219-.692-1.241-1.811-.527-.501-.681-.224-.923-.064-6.249.043-1.032-.117-.736-.426-1.505-1.428-.681-.511-1.383-.384-1-.405-.955-.202-.472-.224-2.845-2.61-1.68-.895-3.086-1.427-.857-.096h-2.152l-.758-.213-.692-1.034-.725-1.481-.308-1.214-.428-.948-.263-1.694-1.911-3.729-.736-.245-1.142-.203-.978-.404-.538-.118-3.24-.085-1.076.053-.461.181-.187.203-.516.831-.417.948-.637.916-.769.235h-.703l-.538-.054-.67-.213-1.219-.895-1.527-.756-.889-.138-3.526-.064-.494-.139-1.23-.597-.637-.617-1.384-2.664-.175-.501.065-1.576.121-.469.187-.298.999-1.034.813-.575 1.076-.565.989-.16.757.022.539.106.988.405.923.011.516-.213 1.043-.735.703-.373.395-.341.198-.299.143-.522.11-1.63.494-1.31.121-1.289-.011-11.954-.132-.905-.516-1.257.099-.64.362-.308 1.647-.512 1.505-.213.373-.288.176-.607.011-1.055-.099-1.086-.23-.81 1.186-2.152 1.131-1.673 1.219-1.47 1.131-2.163 1.032-1.289 3.218-6.147 1.428-1.374 1.142-.597.538-.405 2.416-2.269.813-.874.736-1.225 1.724-1.694.418-.522.164-.458.066-.65-.044-7.127.055-.82.176-.437.428-.416 2.076-.937.362-.267.264-.362.165-.841-.011-3.207.197-.65.813-.842 1.285-.682.637-.554.406-.532.923-1.875.285-.341.374-.256 1.065-.16 5.052.054.846-.224 1.076-.778.604-.256 1.57-.074 1.889.181ZM857.427 424.832l-2.641-.064-1.041.87-1.468-.15-2.061-2.311-2.958-1.16-3.09-.72-2.51 1.741-3.681 5.201-1.776 3.331-1.764.43-2.947-3.836-.592-3.611-2.948-1.161-2.805 1.451h-2.356l-4.043-4.997-1.863-2.665-4.12-4.922-3.835-3.471-7.528-.29-5.162.58-2.947-1.44h-2.06l-.669.774-2.421.634-.91 3.277-1.764.967-2.082-.763-1.6-.29-3.331.183-2.893-.301-1.194.344-2.554.408-4.185-.268-3.343-1.849-2.728-2.407-3.002-1.569-2.192-.999-1.556-.398-3.101.118-1.907-.365-2.399-.892-2.641-2.01-2.806-1.375-3.638-2.429-3.407-4.707-1.359-1.966-.515-.914.033-.569.383-.731.702-.151.668-.956.625-1.386.81-.613.537-.72.57-.258.669-.139 1.994-.065.679-.215.296-.451-.175-.516-1.984-1.913-.789-.903-.745-.053-2.717 1.655-.954-.097-1.282-.43-3.462-2.053-1.447-.343-2.29.193-2.345.666-2.158-.827-.724-.537-.69-.806-.438-2.515-.614-1.397-1.731-.785-4.307-1.031-2.487-.849-1.162-.688-.723-.677-2.159-2.536-.931-.495-1.019-.139h-1.019l-.592-.129-2.038 2.45-1.052.967-.767.484-.986.129-.986-.076-3.244-1.988-2.805-2.009-1.951-2.021-.361-1.311-2.422-4.599.011-.602.931-1.87-.054-.397-.461-.581-2.049-1.923-.821-.495-1.107-.247-1.14-.451-3.21-.118-1.644-.548-1.677-.097-.635-.129-.384-.258-.285-.333-1.358-2.655-.121-.623.022-.806.121-.462.449-.913.033-.774-.121-.441-1.775-3.277-.099-.462.055-.635.318-.569 1.841-1.795.855-1.343 1.566-1.687.691-1.311.077-.43-.088-.441-.351-.773-.241-1.569-.427-.946-.318-1.204-.373-.784-.274-1.72-.514-1.257-.055-3.245-.099-.828-1.841-3.611-.296-1.214-.361-.795-.23-.817-.165-.236-.263-.151-.964-.107-2.86.075-.493.118-.8.376-.482.097-.647-.054-.416-.215-.395-.44-1.008-2.031-1.534-1.698-.559-.978-.931-1.172-1.907-3.653-1.468-1.483-.997-.71v-1.923l-.088-.795-.898-1.774-.866-.816-1.008-.527-1.217-.903-1.731-.655 6.246-5.921.285-.129.482-.043 1.512.677.899.709 1.896 1.859.767.58 1.402.645 1.797.269 1.107.43.603-.076 2.191-1.031 2.181-.151 1.282-.483 2.126-.258-.384-1.118-.876-1.623-2.115-2.138-1.107-.838-1.249-.323-1.14-.44-2.542-.129-1.622-.548-2.169-.194-1.14-.451-1.808-.269-.811-.354-.855-.237-.328-.269-.274-1.45-.417-.946-.109-.473-.055-.978.077-.816.263-.591.832-1.021.559-.946 1.458-1.548.142-.279.044-.462-1.107-2.235-.307-1.225-.668-1.344-.526-.677-1.512-1.44-.296-.505.066-.505 1.315-2.568.087-.505-.493-1.172-1.731-3.148-.143-.581.055-.301.241-.419 1.852-1.784.427-.709.165-2.773.46-1.085.143-.645.087-3.611.504-1.257.23-1.58.406-.945.329-1.204.613-.817 2.181-2.074.438-.72.11-.999-.044-3.955.055-.494.175-.473.537-.655 3.682-3.558.646-1.106.921-1.183.635-1.02.526-.312 1.085-.247.822-.344 1.808-.237.986-.397 1.238-.301.57-.462 1.392-2.655.186-.773v-.656l-.088-.473-.427-.956-.263-1.494-.493-.978-.252-.752-1.041-1.999-.143-.451-.087-3.794.098-1.01.329-.58.351-.366.537-.397 1.15-.602 2.071-1.848 1.217-.688.427-.613.121-.967-.055-5.491-.132-.677-.383-.796-.285-1.063-.471-1.086-.011-.956 2.136-4.17 1.019-1.311 1.118-2.181 1.589-1.731.493-.945.625-.72 1.117 2.375 1.392 1.612 1.173.978 1.106.462 1.271.161 1.414-.323 1.457-.58 2.663-.752.899-.441.843-.172 3.255-.215 3.232.366 4.044.129 3.287-.172 3.452-1.43 2.202-.053 1.677.29.986.462 1.819 1.902 1.359 1.182 3.616 2.042 3.912 1.58 6.268 3.707.482.129 3.726-.311 1.325.053 1.206.817.92 1.171.548 1.43.384 1.665-.066 1.806-.219 1.601-.855 1.655-4.525 6.985-.439 1.236-.208 1.096.614 3.267-.055 1.526-.8 2.246.383.516 1.589 1.354.493.634.209 1.891-.461.688-.865.677-2.751 1.161-1.446.268-.844.323-1.6-.011-1.38.656-.877-.033-.734-.73-.778-.409-.997-.118-.767.247-.428.817-1.775 5.61-1.315 3.481-.953 2.117.296.753.537.526.953.226.668.29 2.225 2.343 2.958.913 3.343 2.182 1.106.462.844.731 2.805 1.773 1.622 1.386.581 1.73.745.183.855.58.964.967.526.839 1.95 1.042 1.425.236 1.041.86.789.344 1.227.151 2.444-.57 1.665.097 2.871.988 1.512.839 2.893 2.439.165 1.096-.033 1.956.186 1.365.515 1.193 1.479 1.73.329 1.88.537.527 1.162.742.865.182.932-.58 2.345-1.988.843-.118 1.096.419 1.337.322.975-.58 1.282-.312.548.215.373.72.252 1.569.219.548.625.258.799-.118.735-.366.778-.709 1.501-1.902.986.355.69.645.285 2.74.307 1.182.625 1.268 1.293 1.419 1.446.795.723-.215.296-.57.307-2.751.592-.913.526-.215.668.215.734.462 4.153 4.406 1.458.247 1.95-.075 1.48-.409 2.98-1.955 1.249-.258.702.182.569.613.472 1.257 1.271 1.687 3.944 3.59.767 1.429 1.14.322.493.484.219.516-.153.806.066.311 2.06.162.526-.441.274-.763.142-1.483.471-.677.713-.054.624.301.855 1.247.734.419.614-.408 1.271-1.774.57-.365.591.021.263.398.252 1.612-.153 1.623.449 2.321.362.87 3.484 2.085-.449 4.729-.646 2.074-1.392 2.772-.756 1.021-2.115 2.128-2.016 1.01-2.816 1.859-5.633 4.976-6.487 1.322-5.764 2.063-3.407 4.363 1.84 9.264 1.83 5.394.263 7.974 2.356 2.826 3.671-3.6 2.247.323-.077.247 3.813 1.623 1.008 1.966-.559 1.44.307 1.827.899 1.902 1.501 1.849.34.58 1.709 2.332.285 1.483-.34 2.418.559.978 1.249 1.064 4.373 1.579 3.331 1.44.208.71.055 1.547.339.247 2.904.151.811.419 1.173 1.171 1.052 1.935.986.784 2.487 1.687 1.896.613 7.462 2.869.132.097.186.688.964.376 2.915.849.164.44.526.366.099-.43.372-.699.439.022.438.526-.109.613-.285.688.076.698.713.011.537-.419.35.44.241.624.625.182.471-1.203.701.365.428.795-.658 1.376-.635.247-.614.075-.373.506-.098.44.964.194.625.021.69.709.373-.344.274-.601-.066-.699.109-.86.187-.344.613.183.329.967-.033 1.569-.46.688.351.183.712-.161.35.268.066.699-.197.784.077.43.887.194 1.337-.398.614.193.164.441-.449.419.153.699.34.623-.296 1.032.515.881.866.806.164.526-.285.688.351.14 3.035.247.702.913.043.742-.624.655-1.238.645-1.315 1.859-.735.699-.12 3.428-2.268 2.246-.483 1.247-.909.999-1.359 2.02.285 1.666.723 1.139.384.946-.471.43v1.966l-.844.441-.427 1.311.252 5.029-.921 1.419-.088 1.203-.591.774Z" fill="#fff" fill-opacity=".3" stroke="#EE2C3C" stroke-opacity=".2" stroke-width=".39"/><path d="m631.328 313.603.416-.129.646-.463 1.871-1.754.634-.754.208-.774.011-2.476.186-.936.711-1.334.952-1.152.449-.828.908-1.184.416-.796.437-.388.449-.107.448.086.799.355 1.094.28 2.363 1.119.865.097 3.381.075 2.308.99.427-.065 1.171-.817 1.323-.549.996.71 1.466 1.485 1.904 3.659.93 1.173.558.979 1.532 1.701 1.006 2.033.394.442.416.215.645.054.482-.097.799-.377.492-.118 2.856-.076.962.108.263.151.164.236.23.818.361.797.295 1.216 1.838 3.616.099.828.055 3.25.514 1.259.273 1.722.372.786.318 1.205.426.947.241 1.571.35.775.088.441-.077.43-.689 1.313-1.565 1.69-.853 1.345-1.838 1.797-.318.571-.054.634.098.463 1.773 3.282.12.442-.033.774-.448.915-.121.463-.022.807.121.624 1.356 2.658.285.334.383.258.634.129 1.674.097 1.642.549 3.205.118 1.138.452 1.105.248.821.495 2.046 1.926.459.581.055.398-.93 1.873-.011.602 2.418 4.606.361 1.313-1.652-.893-1.335-.237-.952.28-1.367 1.012-.974-.065-.996.28-1.685.021-.853.947-1.072 3.067-1.073.474-1.805 1.259-.941 1.098-1.247 1.087-3.589.71-.842.484-1.871 2.26-1.685 1.42-1.718 2.734-2.418 3.486-1.214 1.356-1.554.926-1.772.495-1.073.398-2.921 2.131-2.812 1.162-1.86.603-.809.484-1.072-.065-.996.474-4.005 3.487-.448.645-.241 1.421-.733 1.248-1.214.129-1.368-.064-2.921-.764-.591-.022-1.018.323-.59.032-.887-.602-1.685-1.464-.547-.129-.667.021-.941-.14-2.287-1.011-1.641-3.046-.427-.43-.514.065-.394.226-.744 1.904-.186.807.536.668.143.581-.996.861-.252 2.227 2.265 3.788.919.452 2.451.624 1.893 1.055.809.517.537.624-.175.731-2.506.205-1.291-.14-3.129-1.496-1.215-.301-.941.097-.984.516-1.051-.409-2.527.829h-1.794l-1.018.172-1.203 1.012-1.412.398-.7-.366-.12-1.42-.383-.399-.58-.236-1.215.043-1.302.441-.744-.054-.744-.215-.722-.893-.372-.969-.656-.323-3.917.076-1.401-.42-.853-.129-.394.258-.985 2.174-.393 1.883-.285 2.185-.164.613-.481.603-.438.269-.908.323.011-2.346-.416-.7-.624.065-2.013.613-2.888 1.485-.471.065-.809-.28-2.922-.603-.864.065-1.696.473-2.56 1.259-.941.14-.864-.021-1.554-.571-3.862-2.561-2.418-2.238-4.453-2.701-.744-.237-.624.065-.755.408-.405.732-.175 1.571.022.582-.328.764-.514.29-.854-.204-2.527-1.076-2.495-.237-2.625.344-1.445-.333-.426-.356-.504-2.733-.645-.861-.81-.592-.437-.161-1.467 1.56-.547.108-1.061-.022-.897-.236-1.576-1.421-.744.032-.525.571-.208.538.11.764.831 1.711.153.624-1.422 3.325-.634.603-.876.56-1.652.484-1.214.097-5.351-.194-2.494-.237-1.094.065-1.215.247-2.089 1.087-1.335.409-1.247.14-1.609.549-1.269.915-2.101 2.432-.273.043-.843-3.25-.197-1.098-.415-.925-.121-.485-.022-4.358-.153-1.001-.766-1.474-1.542-1.668-.558-.969-.908-1.173-.416-1.323-.46-1.109-.076-1.635.175-1.249.361-.785.405-1.345.711-1.313.886-1.13.197-.495.077-1.087-.088-4.068-.492-1.302-.285-1.7-.623-1.356-.602-.947-.35-.28-.318-.097-2.275-.108-.285-.161-.23-.42-.021-9.029-.154-.871-.415-.969-.121-1.076.044-1.119.284-.979-1.794-.786-1.225-.882-.821-.42-.492-.56-.153-.678.032-.688.132-.506.459-.936.11-.678-.011-.528-.219-.635-.678-.57-5.11-2.464-.766-.205-.809.076-.81.355-1.247.323-2.364 1.065-2.144.161-1.674.538-10.449-.021-.076-2.249.186-1.012.492-.538 2.046-.936.459-.387.285-.571.208-1.517.437-1.13.099-1.109-.022-4.864-.098-.721-.493-1.108-.087-1.055.142-.678.416-.947.251-1.528.405-.958.11-.495.076-6.23.164-.603.69-1.733.962-.602.427-.162 1.707-.086 1.182.097 1.291.495 1.794.28.82.366 1.248.312.974.42 1.641.236 1.094.42.47-.032.296-.14.645-.517 5.263-5.079.547-.646.503-.936.974-1.173 4.967.054.963.075.525.162 2.024.979.744.14 10.854.097.744.14 1.171.441 3.818.129.547.118.996.409 1.542.14 1.565-.021.744-.13 4.114-1.904 2.637.086 1.006.193 1.258.603.865.57 2.1.033 1.609.581 1.346.086 1.126-.205 6.073-2.905 1.532-.398 1.4-.668 1.335-1.011.93-.409.405-.086.58.258.743.7.548.688.525.98 1.17 1.27.898.807.612.301 1.062.118 9.19.054 1.061-.097.427-.215.405-.43.361-.668.667-.871.143-.398-.033-.259-.722-1.872 2.068.215 1.126.452.504.108 2.669.15.985.42 1.258.312.821.366 1.258.29 1.04.549.317.28.602.969 1.86 3.648 1.203 1.248 1.466 1.291 1.061-.075.919.043.526.119.984.419.701.119.897.021.7-.108.646-.419.722-1.162 1.116-1.485.58-.571.831.151 1.16.344.864.484.296.259.098.258-.055.398-1.028 2.464.033.399.339.29.634.086 5.055-.01.657.129 1.127.452 2.166.172.842.506 2.462 2.346 1.149.645 1.368.958.864.161h3.315l1.072.108 6.674 3.196.887.108 1.083-.043 1.663-.56 2.319-.075.832-.172 2.779-1.292.996-.581.284-.301.602-.969.645-1.345.263-1.732.459-1.087.263-1.571.405-.84-.022-.398-.328-.291-.624-.086-1.597.033-.821.226-.514.516-.919 1.883-.602.775-1.116.98-.459.204-.515.086-2.33-.011-1.029-.15-2.768-1.335-1.236-.893-1.083-.603-.372-.462-.132-.474v-2.4l-.098-.839-1.4-2.841-.405-.527-.635-.56-2.013-1.022-.186-.226-.109-.42.098-.603.394-.538.645-.538 1.018-.495.81-.624 1.488-1.453.765-1.14Z" fill="#fff" fill-opacity=".3" stroke="#EE2C3C" stroke-opacity=".2" stroke-width=".39"/><path d="m651.316 154.389 4.805.678 2.652-.765 3.446-.775 3.293.323 1.413.668 1.207 1.217 1.293 2.09 2.598 2.554 3.098 4.234 3.185 3.997 1.087 1.088 3.185 2.532.869 1.325.718 3.965.206.452-.62.722-.489.948-1.576 1.735-1.108 2.187-1.011 1.315-2.12 4.18.011.959.467 1.088.283 1.066.38.798.131.678.054 5.506-.119.969-.424.615-1.207.689-2.054 1.853-1.142.604-.532.398-.348.366-.326.582-.098 1.013.087 3.803.141.453 1.033 2.004.25.754.489.98.261 1.498.424.959.087.474v.657l-.185.776-1.38 2.661-.566.463-1.228.302-.978.398-1.794.237-.815.345-1.076.248-.522.312-.63 1.024-.913 1.185-.642 1.11-3.652 3.566-.532.657-.174.474-.055.496.044 3.964-.109 1.002-.435.722-2.163 2.079-.608.819-.326 1.207-.403.948-.228 1.584-.5 1.26-.087 3.62-.141.647-.457 1.088-.163 2.78-.424.711-1.837 1.788-.239.42-.054.302.141.582 1.718 3.156.489 1.175-.087.506-1.305 2.575-.065.506.294.507 1.5 1.444.521.678.663 1.347.305 1.228 1.098 2.241-.044.463-.141.281-1.446 1.551-.554.948-.826 1.024-.261.592-.076.819.054.98.109.474.413.949.272 1.454.326.269.847.237.805.356 1.793.269 1.131.453 2.152.194 1.609.549 2.522.129 1.13.442 1.239.323 1.098.841 2.098 2.144.869 1.627.381 1.12-2.109.259-1.272.484-2.163.151-2.174 1.035-.598.075-1.097-.431-1.783-.269-1.391-.647-.761-.582-1.881-1.863-.891-.711-1.5-.679-.478.043-.283.129-6.196 5.937 1.718.657 1.206.905 1 .528.859.818.891 1.778.087.797v1.929l-1.315.549-1.163.819-.424.065-2.293-.991-3.359-.076-.859-.097-2.348-1.12-1.087-.28-.793-.356-.446-.086-.445.108-.435.388-.413.797-.902 1.185-.446.829-.946 1.153-.706 1.336-.185.938-.011 2.478-.207.775-.63.754-1.859 1.757-.641.463-.413.129-1.261-.463-1.489-.162-.457-.129-1.51-.765-1.935-1.821-.642-.474-1.391-.657-1.098-.269-.891-.399-.413.011-.315.248-.566.958-.63 1.358-.283 1.217-.75 1.455-.424.409-.945.496-1.098.84-1.076.485-.381.086-.391-.108-1.728-.84-.805-.118-.619.129-.989.571-.239.388-.066.657.109.679.457.937.13.506.022.668-.131.464-.293.323-.75.409-1.533.377-1.261.658-.761.818-.728 1.961-.576.571-1.109 1.487-.717 1.164-.641.42-.696.107-.891-.021-.696-.119-.978-.42-.522-.118-.913-.043-1.054.075-1.457-1.293-1.196-1.25-1.847-3.652-.598-.97-.316-.28-1.032-.549-1.25-.291-.815-.366-1.25-.313-.979-.42-2.652-.151-.5-.108-1.119-.452-2.055-.215-.239-.356-.217-1.282-.49-1.121-.086-.678.032-.507.294-.528 2.706-1.389.218-.184.184-.42.066-.819-.066-3.189-.13-.668-.467-1.109-.087-1.552.108-1.206.718-1.875.369-.269.478-.087 3.914.054 1.087.13 1.097.474.457.043.565-.162.707-1.023.782-1.832.087-1.433-.076-1.788-.185-.496-1.5-1.702-.554-.97-.446-.549-3.119-3.049-.902-1.078-1.99-3.889-.141-.474-.065-.7.022-6.098-.153-.787-.358-.549-.457-.474-3.359-3.157-2.173.075-2.566-.064-.511-.108-.989-.409-1.587-.237-1.152-.453-2.293-.248-1.316-.495-.891-.087-1.065.065-1.163.431-1.065.259-.403.215-.402.431-.978 2.026-.696 1.066-1.098.668-.847.377-1.305.841.055-4.547-.055-.528-.228-.442-.652-.258-1.152-.011-.968.119-.924.366-.424.043-.25-.108-.184-.258-.098-.992.043-1.885.12-1.067.424-.958.315-1.207 1.033-1.982.173-.604-.032-1.131-.468-1.099-.141-.657-.043-3.211.163-1.379 1.032-1.971.131-.442-.044-.787-.5-1.228.065-.948 1.348-2.672.402-.539.631-.549 1.88-.98.403-.378.521-.851.652-1.357.403-1.498.674-1.088 1.26-.689 1.392-.324.869-.484.294-.302.272-1.476.489-1.282.076-.884-.022-2.704-.152-.679-.25-.431-.728-.905-.468-.829-1.022-1.315-.673-1.357-.131-.668-.032-4.094.076-.851.369-.668 1.12-.679.38-.452.185-1.002-.12-1.401-.771-1.659-.642-1.196-.282-.356-.489-.344-2.087-.959-.935-.625-.228-.744-.044-1.885-.109-.496-.445-1.142-.065-2.057-.142-.614-.304-.313-.739-.409-1.239-.388-.207-.194-.152-.571.087-.937.456-.949.446-1.314.674-.819 1.174-.668.413-.42.196-.592.065-1.8.152-.452.62-.754 1.087-1.024 1.152-.916-.783-1.196-.359-1.357-.717-1.239-1.12-.657-1.228-.302-.402-.215-.315-.313-.533-.937-.837-1.056-.804-1.67-.087-2.392-.218-.56-.369-.215-1.859-.625-2.837-.065-.848-.151-.848-.614-2.152-2.187-.369-.517-1.348-2.715-.261-1.756-.522-1.358 2.718-.603 1.054-.7.522-.496 1.098-3.857 1.228-2.262 1.228-1.994.978-1.368 2.859-1.971 2.652-1.175 3-1.099 2.718-.463 1.913.032 4.217.582 1.663.075 1.044-.301 1.446-.647 1.413-.84 2.706-2.198L578 146.61l2.217-.98 1.914-.399 2.195.075 10.174 1.272 3.359-.334 2.12-.539 2.163-.237 3.206.743 1.305.614 1.217.744.772 1.002 1.011.969.858 1.045 2.446 13.198.837 1.832.696.603 1.217.744 1.228.14.761-.097 1.892-1.11 2.532-6.055 1.815-5.99 2.446-4.019 1.152-1.594 1.153-1.272 1.173-.926 1.729-.506 1.837-.356 2.761-.129 3.521.722 2.066.678 3.163 2.532 5.043 4.945 1.337.464ZM433.014 121.14l.381.022 1.644-.432 1.317-.549 2.559-.14 3.32.258 4.68.615 3.103 1.336 1.034.991 1.154.798 1.437.409 3.364.227 1.077.161 1.23.367 2.069 1.164 2.623 2.123.827.797.479.948.501 1.789.555.798 1.024.797 1.034 1.002 1.578 2.026.631.28.719.162 1.927-.528 1.23.248 1.154.442 1.349 1.077 1.144 1.595 1.817 1.326 6.641 2.672 2.144 1.326 1.056 1.358.588 1.185.185 1.185-.174 1.735-4.735 9.354-1.481 1.283-.849.549-.838.302-.61.938-.566.668-.283.549-.087.636.152 1.38 3.843 5.679 1.143 1.185.751.054.642-.075 2.472-.96.794-.107.838.129 1.84 2.382.991.323.958-.302 1.055-1.013.915-.226.795.28 1.534 1.595.795.129 1.393.011 2.003.83.131 1.024.414.959.283 1.067.424.937.087.474-.087.787-.457 1.088-.196 1.444-.403.959-.326 1.207-.479.55-2.21 1.078-1.361.991-3.472 1.638-1.111.657-.729 1.229-.196 1.606-.13.452-.49.873-.283.313-1.154.614-1.796.226-.969.41-1.1.258-1.328.496-3.777.086-.555.108-1.002.399-.762.097-8.088.011-.479.097-.99.398-1.764.27-.816.355-1.089.259-1.154.442-1.774.237-1.002.539-.359.463-.207 1.315-.402.97-.109.506.011 2.22-1.742-.162-1.296-.495-1.763-.28-6.172-3.072-.675-.172-1.252.064-1.154.464-1.763.269-.828.356-1.241.312-.979.421-.882.097-1.415-.119-1.328-.506-2.123-.205-1.132-.463-1.089-.27-.816-.377-.882-.151-6.564-.011-.697.119-1.132.442-1.524.172-2.122-.14-1.982.011-.62.269-.142.226-.098.475-1.11 1.034-4.605 2.296-.381.441-.936 1.908-.696.873-1.71 1.562-.979.507-1.23.927-1.513.722-1.949.28-1.317.808-.991-.269-1.186-.022-.643.119-1.121.452-2.155.162-.577.312-1.295 1.175-.262.118h-.305l-.5-.301-1.198-1.11-1.252-.722-1.632-1.423-2.755-1.379-.783-.183-3.07.01-.457-.053-.392-.194-.163-.237-.229-.83-.414-.949-.185-2.963-.413-.959-.316-1.218-.599-.808-5.78-5.625-1.121-.636-1.383-.981-1.546-.474-.065-.172-.185-.108-1.644-.302-.294-.183-.718-.733-.599-1.056-.207-.194-2.427-.97-.457-.032-.534.172-.217.388-.458 1.326-.337 1.713-.24.27-.283.118-1.164.172-1.339.485h-1.078l-.675-.183-.25-.172-1.383-1.25-.566-.324-1.633-.226-1.273-.528-1.318-.032-.457.183-.337.302-1.165 2.263-.686.571-1.241.571-1.252.291-.816.356-1.241.312-.969.41-1.295.097-1.383-.173.131-1.53-.033-3.158-.207-.646-.979-1.326-.185-1.013.087-1.918.479-1.121.13-.495.011-1.584-.305-.809-1.393-1.638-.893-1.562-.304-1.908-1.361-2.715-1.023-1.326-1.122-2.209-.936-1.185-.446-.852-.936-1.185-.436-.841-1.654-1.875-.806-1.649-.098-1.013-.011-4.332.164-1.163.37-.561.501-.463 1.251-.668 1.372-.97-1.187-1.132-.685-1.207-1.437-1.616-.599-1.099-.882-.873-3.603-1.778-1.35-1.035-1.371-.69-1.394-.366-.979-.42-1.786-.259-1.883-1.099-2.787-2.565-.968-.506-1.231-.949-2.482-1.25-.751-.797-.762-1.326-1.143-1.023.806-1.304 2.906-5.841.36-.485.37-.259.696-.14h4.855l.523-.108.98-.398 1.937-.13.643-.204.435-.388 1.404-2.156.283-1.745.392-.981.163-1.164.24-.571.261-.162.653-.108 2.744.065.881.151 5.106 2.511 1.066.108 4.888.043.642.129 1.133.453 2.155.194 1.546.7 3.407 1.746.805.194 4.583.043.828.162.958.42.968.022 3.048-1.466 1.895-1.617.849-.441 1.045-.809.609-.183.577.14 3.266 1.66 1.241.312.98.41 1.785.269 1.382.658.795.614 2.155 2.155.436.313.479.161.805-.032.958-.399.534-.118 2.427-.119 1.698-.549 6.706-.022.729-.097 1.328-.517 1.034-.022.556.28.587.981.12.463.131 1.466.577 1.164.468.334.751.011.958-.421 1.088-.269.458-.215 1.067-.938.62-.841.152-1.142-.054-6.487.054-.507.218-.431.24-.151 2.765-.926.696-1.067.403-1.509.599-1.239.402-.539.763-.647 1.11-.592 1.981-1.854 1.339-.744 1.176-1.077.74.549 1.023.518.49.42 1.568.442 7.391 1.724 7.544 3.524 1.154 1.196 1.752.798 1.785.075ZM441.768 287.468l1.162-.119 1.325-.497.723-.043.723.087 2.531 1.177 2.487.118.69.152.581.378 1.183 1.058.449.27.515.13 1.424.075.702.119 2.771 1.307.449.389.274.583.011 2.7.154.864.274.432.471.475 1.566.896.8.864.164.486.176 1.383.383.982.197 1.296.208.411.428.216.493.054 6.562-.011-.077 1.231.066 1.069.471 1.307.176 1.123.109.281.219.216.559.151 2.344.097 1.545.691.701.519 2.432 2.333.778.367 3.199.075.877-.064.471-.141 2.29-1.134 5.105.022 1.468.162.975.41 1.096.281.832.356 1.249.314 1.578.702.942.583.186.237.164.81-.153 2.851-.975 1.178-.504.939-.548.648-5.269 5.098-.647.518-.295.14-.472.033-1.095-.421-1.643-.238-.976-.421-1.248-.313-.822-.368-1.797-.28-1.293-.497-1.183-.097-1.709.086-.427.162-.964.605-.69 1.739-.165.604-.076 6.253-.11.497-.405.961-.252 1.534-.417.95-.142.681.088 1.058.493 1.112.098.724.022 4.881-.099 1.113-.438 1.134-.208 1.522-.285.573-.46.389-2.049.939-.493.54-.186 1.015.077 2.257 10.462.022 1.677-.54 2.147-.162 2.366-1.069 1.249-.324.811-.356.811-.076.767.205 5.116 2.473.679.573.219.637.011.529-.109.68-.461.94-.131.508-.033.691.154.68.493.562.821.421 1.227.885 1.797.789-.285.983-.044 1.123.121 1.08.416.972.153.874.022 9.061.23.422.285.162 2.279.108.318.097.35.281.603.95.624 1.361.285 1.706.493 1.307.088 4.082-.077 1.091-.197.497-.887 1.134-.713 1.317-.405 1.35-.361.788-.176 1.253.077 1.642.46 1.112.416 1.329.91 1.177.558.972 1.545 1.674.767 1.479.153 1.005.022 4.373.121.486.416.929.197 1.102.844 3.261-.471.065-1.402-.248-2.487-1.307-6.037.119-1.72.14-4.262-.4-1.139.141-2.794 1.209-4.371 2.96-1.567.604-.909.724-.602.918-1.896 2.333-.745.334-1.95-.367-1.72-.896-1.315-.475-1.829-1.566-2.136-1.177-1.096.108-1.895 1.252-2.038.799-3.013-.032-1.632-1.091-1.479-1.36-1.906-1.253-1.162-.313-1.566-.087-1.567.173-4.908 2.365-1.687.907-.712.108-1.786-.108-1.052-1.987-.416-1.901-.537-1.425-.581-1.048-1.785-2.052-1.677-.669-2.465-.821-.898-.551-1.83-1.361-1.216-.388-1.205-.087-1.293.184-4.864 1.404-5.609 1.911-3.407.713-2.783.227.909-1.89-.23-.929-4.349-9.244-.778-.778-.865-.27-1.216-.162-.976.346-1.961 1.188-2.826-.702-.975-.735.548-.583 1.61-.918 1.337-.572 1.095-.313 2.005-1.156 1.687-1.696 1.107-.723.076-.508.515-.388.241-.454-.076-.508-.439-.54-.975-.507-.865-.313-1.249-.195-1.096.065-.865-.227-.625-.853-3.297-.4-.657-1.047-2.389-4.374-.58-.778-4.558-2.408-2.465-.162-1.38-.885-1.523-.551-1.063-1.545-.898-1.674-2.082-1.663-.504-.896.033-1.004-.745-1.437-.942-.691-.427-.464v-2.139l-.504-.885-3.188-1.134-1.764-2.441-3.462-1.393-.274-.659.11-1.242-.154-1.209-.865-.767-2.52.151-1.26.626-.624 2.56-.669 1.469-.548.432-.635.032-.745-.572-.712-.778-.668-.464-1.019-.238-1.698-1.35.044-.972-.351-.81-1.665-1.555-.11-.702.548-1.469.898-.626.953-.313 1.14-.886-.318-3.693.274-.465 1.534-.777.821-.972-.317-2.063-.899-.853-4.656-.108-.537.648-.284.551-.439.55-.471-.118-.942-.659-1.26-.27-2.958-1.663-.865-.033-1.545-.464-1.687-.151-3.933.118-4.459 1.296-.668.087-1.304.432-.866.389-1.84-.26-.636.346-.701 1.274-.986.648-.898-2.905-.526-1.415-.383-.777-.209-1.566-.263-.605-.416-.507-2.432-2.387-1.358-2.581-.932-.81-2.103-.983-.46-.378-.515-.918-1.655-1.868-1.511-2.992-.198-.896-.449-.918-.153-.627.055-1.62.361-.734 1.863-1.814.427-.691.12-.875-.021-3.694-.033-.702-.132-.486-1.786-3.466-.306-1.253 2.53-.108.34-.054.811-.367.712-.151h2.432l.548.064.504.195 1.588 1.382.778.335h.8l1.161-.443 1.348-.205.383-.238.592-.939.142-.475.197-1.556.647-1.36.537-.692.887-.831.624-.378.669-.141 3.495.033 2.224 2.246.777 1.307.702.508 1.413-.022.821.097 2.52 1.145 1.107.151 1.325.022 1.447-.173.46-.27 1.709-1.609.712-.529 4.108-1.934.767-.162h2.432l.734.108 2.213 1.059.679.173.921.064 3.418-.032.909.086.482.141 3.298 1.641.296.098 1.106.108 1.556-.065 1.446-1.415.438-.292.504-.162 1.95-.14 1.173-.421.69-.119 3.516-.054 1.863-.572 4.36-.054 1.698-.54 1.633-.141.756-.162 1.413.789 1.632.745 1.731-.735 7.735-3.704 1.249-.281.975-.421 1.106-.237.822-.368 1.26-.291.822-.367 1.26-.292.821-.367 1.633-.205.46-.13 2.782-1.328 1.764-1.512 1.534-.756.46-.13 1.479-.162 1.129-.432 1.796-.259.701-.464 1.907-1.761 1.534-.766.46-.13 1.479-.162 1.128-.443 1.172-.097Z" fill="#fff" fill-opacity=".3" stroke="#EE2C3C" stroke-opacity=".2" stroke-width=".39"/><path d="m541.495 167.912.525 1.352.263 1.749 1.357 2.704.372.515 2.167 2.178.854.612.853.15 2.857.065 1.872.622.372.215.219.557.087 2.382.81 1.664.843 1.051.536.934.318.311.405.214 1.236.301 1.128.654.722 1.234.361 1.352.788 1.191-1.16.912-1.094 1.02-.624.751-.153.45-.066 1.792-.197.59-.416.419-1.182.665-.679.815-.448 1.309-.46.945-.088.933.154.569.207.193 1.248.386.744.408.307.311.142.612.066 2.049.449 1.138.109.493.044 1.878.23.74.941.622 2.101.955.493.344.284.354.646 1.191.777 1.652.121 1.395-.186.998-.383.451-1.128.676-.372.665-.077.847.033 4.078.132.665.678 1.352 1.029 1.309.471.826.733.902.252.429.153.676.022 2.693-.077.88-.492 1.277-.274 1.469-.295.301-.876.483-1.401.322-1.27.686-.678 1.084-.405 1.492-.657 1.351-.525.848-.405.376-1.894.976-.634.547-.405.537-1.358 2.661-.065.944.503 1.223.044.783-.131.44-1.04 1.964-.164 1.373.044 3.198.142.654.47 1.095.033 1.126-.175.601-1.04 1.974-.317 1.202-.427.955-.12 1.062-.044 1.878.098.987.187.258.251.107.427-.043.93-.365.975-.118 1.16.011.656.258.23.439.055.526-.055 4.528 1.314-.837.853-.375 1.106-.666.7-1.062.985-2.017.405-.429.405-.215 1.073-.257 1.171-.429 1.072-.065.898.086 1.324.494 2.31.246 1.16.451 1.598.236.996.408.514.107 2.583.064 2.189-.075 3.382 3.144.46.472.361.548.153.783-.022 6.073.066.697.142.472 2.003 3.874.909 1.073 3.141 3.036.449.548.558.965 1.51 1.695.186.494.077 1.781-.088 1.427-.788 1.824-.711 1.02-.569.161-.46-.043-1.105-.472-1.095-.129-3.94-.054-.482.086-.372.268-.722 1.867-.11 1.202.088 1.545.471 1.105.131.665.066 3.176-.066.816-.186.418-.219.183-2.725 1.384-.296.526-.033.504.088.676.492 1.116.219 1.277.241.354.723 1.867.032.257-.142.397-.668.869-.361.666-.405.429-.427.214-1.061.097-9.194-.054-1.062-.118-.613-.3-.897-.805-1.171-1.266-.525-.976-.548-.687-.744-.698-.58-.257-.405.086-.93.408-1.336 1.008-1.401.665-1.532.397-6.074 2.897-1.128.204-1.346-.086-1.609-.579-2.101-.032-.865-.569-1.258-.601-1.007-.193-2.638-.086-4.115 1.899-.745.129-1.565.022-1.543-.14-.996-.408-.547-.118-3.82-.128-1.171-.44-.744-.14-10.858-.096-.744-.14-2.025-.976-.525-.161-.963-.075-4.969-.054.153-2.833-.164-.804-.186-.236-.942-.58-1.576-.697-1.247-.311-.832-.354-1.095-.279-.974-.408-1.466-.161-5.101-.022-2.287 1.127-.471.14-.875.064-3.196-.075-.777-.365-2.43-2.318-.701-.515-1.543-.686-2.342-.097-.558-.15-.219-.215-.11-.279-.175-1.116-.47-1.298-.066-1.062.077-1.223-6.556.01-.493-.053-.427-.215-.208-.408-.197-1.287-.383-.977-.175-1.373-.164-.483-.799-.858-1.565-.891-.471-.472-.273-.429-.154-.858-.011-2.683-.273-.579-.449-.386-2.769-1.299-.701-.118-1.422-.075-.515-.129-.449-.268-1.182-1.051-.58-.376-.689-.15-2.485-.118-2.528-1.17-.722-.086-.723.043-1.324.494-1.16.118-.121-1.127-.514-1.266-.077-1.212.143-1.02.689-1.33.668-.816 1.324-1.244.569-.419 1.018-.536 2.167-1.899 1.237-.709.438-.611.109-1.03-.022-9.174.143-.848.416-.944.12-1.116.755-.536 4.739-2.211.953-.783.799-1.309 1.554-1.706.7-1.341.361-1.341.427-.945.252-1.738.383-.783.296-1.223.667-1.331.646-.611 2.638-1.256.142-1.813.46-1.095.142-.643.022-3.606-.099-.826-.438-.955-.328-1.201-.394-.784-.087-.783.087-.461.438-.934.263-1.073.755-1.448.558-.494 1.959-.89.712-.505 1.094-1.137.536-.998.438-.537.755-.751.569-.407.843-.204 2.977.032.898-.107.47-.215 1.204-.88 1.39-.654 1.773-.258 1.15-.44 1.379-.257-.372-1.116-.449-.944-.088-.644.044-.805.153-.44 1.04-1.985.306-1.212.394-.794.318-1.213.383-.783.109-.622-.098-.633-.657-1.352-.678-1.105-.318-.279-.897-.494-.646-.172-1.631-.053-1.061.107-1.697.783-2.036 1.674-2.616 1.277-.788.139-.645-.107-1.128-.461-3.206-.14-.504-.107-.974-.408-1.784-.279-.843-.579-1.948-1.889-.011-2.21.11-.504.404-.966.208-1.309.362-.461 1.007-.537 1.784-.236 1.16-.44 1.094-.257.821-.354 1.773-.269.996-.397.482-.096 8.132-.011.766-.096 1.007-.397.558-.108 3.798-.086 1.335-.493 1.106-.258.974-.407 1.806-.226 1.16-.611.284-.311.493-.87.131-.45.197-1.599.734-1.223 1.116-.655 3.491-1.631 1.368-.987 2.222-1.073.482-.547.328-1.202.405-.955.197-1.437.46-1.084.087-.783-.087-.473-.427-.933-.285-1.062-.415-.955-.132-1.02 2.922.88 2.179 1.095 1.006.011 1.971-.569 1.247-1.116 1.182-1.363 3.404-3.326 1.259-1.084 1.127-.536 3.273.397 3.458-1.052 2.222-.88 1.204-.171.843.043 1.904.74 1.85-.172 1.248-.407 1.411-.923.767-.343 1.598-.355ZM210.967 238.456l.567.194.109.237.359.194v-.237h.567l.392.377v.237l-.032.193.25.474v.097l-.218.14-.501 1.185-.676.614-.392-.044-.033-.096v-1.142l-.141-.571v-.431l-.142-.333-.174-.334-.109-.377v-.28l.174-.097Zm105.504-175.6-.337.572-.153.721.207.754.403.43.6.238 1.046.194 1.122.075 2.583 1.066 2.616.818 2.179 1.099 2.016 1.303 2.093.904 1.537.873 1.373 1.227 1.209.636 1.973.474 1.613.667 1.373 1.185 3.901 1.852 2.169.55.403-.28.164-.722-.164-.916-1.58-3.456.24-.84.567-.205 1.809.312 1.002.033 1.613-.646 1.243-.119 5.307-1.561 1.896-.043 1.45.28.806.592.85.441.73.679 1.123.161 2.855-.678 2.855.99 3.826.237.359.711.12 1.433.36.99.523.517.883.474 1.689.678.959.711.12.84-.403 1.863-.447 1.271h1.569l1.45.162 2.571.355 2.169.442 2.093.915 2.005 1.27 1.885.722.839.442.12.635-.643 1.27-.643.916-.686 1.27.076 1.702.24 1.271 1.199 1.982.839 1.152 2.245 2.1 6.844 4.652 7.04 6.321 1.242 1.271 1.036 1.788.348.301-1.024-.517-.752-.549-1.177 1.066-1.351.754-1.984 1.852-1.111.593-.763.646-.404.538-.599 1.239-.403 1.507-.698 1.067-2.779.926-.239.161-.218.431-.055.506.065 6.483-.163 1.142-.621.84-1.068.926-.458.226-1.09.269-.948.42h-.763l-.457-.345-.578-1.163-.131-1.464-.131-.453-.588-.979-.556-.28-1.035.021-1.33.517-.741.108-6.702.01-1.7.55-2.431.118-.523.119-.959.409-.806.032-.48-.161-.436-.313-2.157-2.154-.796-.613-1.384-.657-1.787-.259-.981-.42-1.253-.312-3.259-1.658-.588-.14-.611.183-1.046.807-.85.453-1.907 1.604-3.041 1.465-.97-.011-.959-.431-.828-.151-4.588-.053-.806-.194-3.401-1.745-1.547-.7-2.158-.194-1.122-.452-.643-.129-4.905-.043-1.068-.108-5.1-2.509-.883-.151-2.757-.054-.643.097-.272.162-.24.571-.164 1.163-.381.99-.283 1.745-1.406 2.154-.447.398-.643.194-1.94.129-.981.399-.523.107h-4.86l-.698.151-.381.259-.36.484-2.91 5.837-.806 1.303 1.144 1.034.752 1.324.752.787 2.485 1.249 1.221.947.969.496 2.801 2.574 1.886 1.098 1.787.258.97.42 1.395.356 1.373.689 1.351 1.034 3.608 1.777.882.883.6 1.098 1.438 1.616.698 1.206 1.188 1.13-1.374.97-1.253.667-.501.463-.382.56-.152 1.163.011 4.33.098 1.001.806 1.659 1.646 1.863.436.84.926 1.184.447.84.937 1.185 1.123 2.207 1.024 1.325 1.351 2.714.317 1.906.882 1.572-1.863-.183-1.559.075-.61.259-1.068.786-.85.226-5.013-.054-1.046.162-.371.258-.283.345-.916 1.906-.392.538-.632.56-1.286.69-.796.861-.207.657.011 3.242-.163.85-.262.366-.349.27-2.07.947-.414.42-.175.442-.065.829.054 7.205-.065.656-.174.464-.414.527-1.711 1.702-.731 1.238-.806.883-2.387 2.294-.534.409-1.133.603-1.417 1.4-3.182 6.203-1.025 1.314-1.122 2.175-1.155 1.443-1.123 1.702-1.166 2.175.229.808.087 1.098-.011 1.066-.174.614-.371.291-1.493.215-1.623.517-.371.313-.098.646.512 1.271.131.926.011 12.082-.12 1.304-.491 1.324-.109 1.659-.141.527-.196.302-.404.344-.697.377-1.035.743-.513.216-.915-.011-.981-.409-.534-.119-.752-.011-.981.162-.381-1.023-.327-.452-1.144-.625-1.09-.258-.981-.453-1.21-.14-5.743-.075-.512-.097-.828-.377-1.777-.248-1.002-.646-3.15-3.123-.894-.7-1.166-.301-.97-.409-1.776-.28-1.003-.41-1.83-.269-1.581-.851-2.637.442-.828.355-.73.129-6.18-.01-.719.215-2.005.926-1.929.334-1.003.377-2.397.269-1.537.442-.643.075-8.751-.075-.687.107-.98.377-1.472.205-.457.14-.633.388-.217-.528-.393-.28-.719-.334-.501-.194-.175-.097-.893-.14-.109.043-.425.043-.611.14h-.893l-.752.097-.327-.043-.534-.194-.142-.193-.218-.043-.109.14-.36.096h-.501l-.174.14.076.614.283.14.534.851h.218l.033.474-.174.237.218.807.174.851.142.948.359.851.316.57.142.28.033.431-.218.474-.251.237-.142.14-.141.097-.425.14h-.251l-.142-.097-.283-.377-.076-.237-1.253-1.701-.643-.571-.284-.754-.468-.474-.785-1.141-.218-.334-.534-.711-.392-.334-.251-.474-.174-1.852-.251-.474-.142-.097-.752-.14.175-.193.141-.28.197-.14.272-.044-.033-.236-.468.096.076-.236.251-.237.392-.043.109-.14-.076-.28-.469-.14.076-.851-.316-.808-.359-.614-.752-1.044.076-.474.36-.851.566-.668.142-.43.36-.474.25-.14.142.097h.218l.109-.097.392.043.033-.14-1.035-.334-.643-.808-.676-.333-.567-.043-.218-.28-.174-.194-.469-.28-.218-.14v-.334l.284-.097.468-.668.502-1.475.174-2.714-.501-3.564-.186-.808-.708-2.089-.501-2.143-.469-1.756-.752-2.283-.719-2.003-.425-1.615-.643-1.766-.142-.668-.218-.668-.392-.57-.534-1.282-.316-1.098-.611-.237-.969-.948-1.003-.474-.643-.527-.567-.291-.392-.194.142-.668v-.527l.218-.528.174-.571.425-.043.392-.097h.927l.392-.097.392-.14-.076-.377-.218.044-.251.043-.25.237-.251.096-.817-.096h-.218l-.643.333-.284.808-.174.237-.109.474.076.571h-.141l-.077-.097-.174-.474-.033-.431-.468-1.626 2.67-1.432 3.345-1.54 3.161-1.583.817-.927.36-.721.36-.485 2.452-2.477.871-1.399.545-.582.491-.345 1.547-.678.97-.205.948-.377 2.038-.312 8.185-3.941 1.133-.862 1.112-.592 1.907-1.583 1.079-.582 1.111-.829.981-.517 1.896-1.852.927-1.475 2.659-2.693.61-1.098 1.7-1.949.97-1.96 1.21-1.476 2.18-.721 1.22-.636.654-.721.283-1.088.404-.969.283-1.755.414-1.034.087-.614.022-2.735-.109-.776-.327-.678-.719-.915-.567-1.013-2.572-2.617-.436-.721-.283-1.109-.425-.959-.109-1.249-.033-7.452-.098-.517-.381-.786-.098-.528-.131-3.101-.621-1.723v-.7l-1.57-1.551-.185-.517.185-.485.709-.904.447-.819.773-.796 1.777-.873 1.133-.42.719-.969.741-1.583.077-.722-.186-.549-.948-.969-.185-.625-.087-1.927-.164-.496-.436-.517-.642-.312-.447-.452-.305-.732v-4.071l.152-.689.436-.98.098-.679-.174-.797-.502-.29-2.027-.043-.457-.108-.24-.183-.643-1.109-.196-1.411-.425-1.142-.066-.592.229-.463.382-.345 2.681-1.227.599-.14 1.973-.151 1.144-.42 1.918-.345 3.585-1.701 2.136-.183 1.679-.539 2.419-.054.926-.107 1.036-.366 1.307-.183.447-.194.262-.302.512-1.012.153-1.292.185-.657.588-1.217.36-.517.567-.517 1.231-.69 1.025-.86 1.809-1.842.272-.42 2.082-4.233.218-.958 1.089-2.23.295-1.819.512-1.239-.098-1.033-1.21-2.434.011-4.33.142-.667 1.111-2.326.284-1.077 1.057-2.154.327-1.26.37-.818.055-.194 3.313.506.806-.161 3.281-2.057 1.046-.011 1.329.27 1.21.43 1.013.743 1.951 2.014 1.21.194 1.929.107 1.079-.527 1.798-1.885.926-.721.85-.011 2.06.301.719-.204.404-.517.359-1.077.403-.678.48-.324.926-.247 3.586-.345 1.449-.41 2.692-1.291 1.33-.043.762.312 1.777 1.184 1.09.948.207.84-.807.517-.686.603-.175.29ZM604.102 323.833l.727-1.87.759-.782 1.259-.626 1.53-.36.748-.391.293-.308.13-.442-.021-.637-.13-.483-.456-.894-.109-.648.065-.627.239-.37.987-.544.619-.124.803.113 1.725.802.391.103.379-.082 1.075-.463 1.095-.801.944-.473.424-.391.748-1.387.282-1.161.63-1.295.564-.915.315-.236.412-.011.89.381 1.095.256 1.389.627.64.453 1.932 1.736 1.508.73.456.123 1.486.155 1.259.441-.76 1.09-1.475 1.387-.803.596-1.009.473-.641.514-.39.514-.098.575.109.401.184.216 1.997.976.629.535.401.503 1.389 2.713.098.802v2.292l.13.452.369.442 1.074.576 1.226.853 2.745 1.274 1.02.144 2.311.01.51-.082.456-.195 1.107-.936.597-.74.911-1.798.51-.493.814-.216 1.584-.031.618.082.326.278.022.38-.402.802-.26 1.5-.456 1.038-.26 1.655-.641 1.284-.596.925-.282.288-.988.555-2.756 1.233-.824.165-2.301.072-1.649.534-1.074.041-.879-.103-6.619-3.052-1.063-.103h-3.288l-.857-.154-1.356-.915-1.139-.616-2.442-2.241-.835-.483-2.148-.164-1.118-.432-.651-.123-5.013.01-.629-.082-.337-.277-.032-.381 1.02-2.353.054-.38-.098-.247-.293-.247-.857-.462-1.15-.329-.824-.144Z" fill="#fff" fill-opacity=".3" stroke="#EE2C3C" stroke-opacity=".2" stroke-width=".39"/></svg>